<?xml version="1.0" encoding="UTF-8" standalone="no"?>
<!-- Created with Inkscape (http://www.inkscape.org/) -->
<svg
   xmlns:dc="http://purl.org/dc/elements/1.1/"
   xmlns:cc="http://creativecommons.org/ns#"
   xmlns:rdf="http://www.w3.org/1999/02/22-rdf-syntax-ns#"
   xmlns:svg="http://www.w3.org/2000/svg"
   xmlns="http://www.w3.org/2000/svg"
   xmlns:sodipodi="http://sodipodi.sourceforge.net/DTD/sodipodi-0.dtd"
   xmlns:inkscape="http://www.inkscape.org/namespaces/inkscape"
   id="svg2440"
   sodipodi:version="0.32"
   inkscape:version="0.46"
   width="407.65353"
   height="250"
   version="1.0"
   sodipodi:docname="Mississippi State Bulldogs.svg"
   inkscape:output_extension="org.inkscape.output.svg.inkscape">
  <metadata
     id="metadata2445">
    <rdf:RDF>
      <cc:Work
         rdf:about="">
        <dc:format>image/svg+xml</dc:format>
        <dc:type
           rdf:resource="http://purl.org/dc/dcmitype/StillImage" />
      </cc:Work>
    </rdf:RDF>
  </metadata>
  <defs
     id="defs2443">
    <inkscape:perspective
       sodipodi:type="inkscape:persp3d"
       inkscape:vp_x="0 : 526.18109 : 1"
       inkscape:vp_y="0 : 1000 : 0"
       inkscape:vp_z="744.09448 : 526.18109 : 1"
       inkscape:persp3d-origin="372.04724 : 350.78739 : 1"
       id="perspective2447" />
  </defs>
  <sodipodi:namedview
     inkscape:window-height="744"
     inkscape:window-width="1280"
     inkscape:pageshadow="2"
     inkscape:pageopacity="0.0"
     guidetolerance="10.0"
     gridtolerance="10.0"
     objecttolerance="10.0"
     borderopacity="1.0"
     bordercolor="#666666"
     pagecolor="#ffffff"
     id="base"
     showgrid="false"
     inkscape:zoom="1.181974"
     inkscape:cx="248.73963"
     inkscape:cy="160.65236"
     inkscape:window-x="-4"
     inkscape:window-y="-4"
     inkscape:current-layer="svg2440" />
  <path
     style="fill:#ffffff;fill-opacity:1;fill-rule:evenodd;stroke:none;stroke-width:1px;stroke-linecap:butt;stroke-linejoin:miter;stroke-opacity:1"
     d="M 56.29834,104.39028 L 55.576505,177.29582 L 151.58083,146.25682 L 247.58516,143.36947 L 343.58949,170.79928 L 342.86765,100.7811 L 259.13455,72.62945 L 171.07043,69.02026 L 95.27754,85.62252 L 56.29834,104.39028 z"
     id="path3243" />
  <path
     style="fill:#660000;fill-opacity:1"
     d="M 55.457518,234.67025 L 55.457518,219.34048 L 62.70966,208.19356 L 69.96179,197.04664 L 69.96179,192.47056 L 69.96179,187.89448 L 79.98681,183.86359 C 102.70165,174.73034 143.05847,163.82755 154.15048,163.82755 L 155.28105,163.82755 L 155.28105,206.91377 L 155.28105,250 L 105.36928,250 L 55.457518,250 L 55.457518,234.67025 z M 252.54501,206.91377 L 252.54501,163.82755 L 253.3414,163.82755 C 264.11473,163.82755 302.9271,174.25195 326.98606,183.60736 L 337.86427,187.83739 L 337.86427,192.62595 L 337.86427,197.41451 L 344.68981,207.97393 L 351.51535,218.53335 L 351.51535,234.26668 L 351.51535,250 L 302.03018,250 L 252.54501,250 L 252.54501,206.91377 z M 185.41318,190.89422 L 167.35648,162.54776 C 189.99818,159.54525 215.70238,159.35002 239.87534,162.72771 L 222.61618,189.9399 L 203.46988,219.24068 L 185.41318,190.89422 z M 45.219207,145.57345 L 45.219207,100.98246 L 56.95061,95.34299 C 78.94284,84.77099 96.18193,78.48295 120.72675,72.08036 C 175.01415,57.21979 241.72228,58.57489 290.08548,72.97436 C 312.88843,79.07793 330.79127,85.71853 350.44886,95.36459 L 361.75366,100.91191 L 361.75366,145.60134 L 361.75366,190.29078 L 352.5093,185.65455 C 331.7864,175.26163 309.0254,166.89524 284.11313,160.51382 C 242.16075,147.89297 196.89066,147.26691 154.42786,154.04187 C 120.15228,159.64455 87.09835,169.94846 57.3772,184.29551 L 45.219207,190.16444 L 45.219207,145.57345 z M 330.18553,152.45288 L 330.18553,146.19736 L 324.63978,143.99705 L 319.09403,141.79673 L 319.09403,143.9449 L 319.09403,146.09307 L 318.02754,145.70302 C 317.44097,145.4885 313.40963,144.05111 309.06902,142.50882 L 301.17698,139.70465 L 301.17698,132.14266 L 301.17698,124.58069 L 301.87013,124.58069 C 302.25136,124.58069 305.91908,125.71503 310.02062,127.10143 L 317.47796,129.62218 L 317.21951,125.60834 L 316.96105,121.59452 L 309.28231,118.94162 L 301.60358,116.28871 L 301.35578,109.3432 L 301.10798,102.39768 L 302.20686,102.39768 C 302.81125,102.39768 306.85811,103.58115 311.19989,105.02761 L 319.09403,107.65755 L 319.09403,109.51123 L 319.09403,111.36489 L 324.03354,113.28023 C 326.75028,114.33367 329.26269,115.19557 329.61668,115.19557 L 330.26029,115.19557 L 330.00961,109.1421 L 329.75894,103.08864 L 324.63978,101.00651 C 317.35392,98.04311 299.28773,91.82205 292.00516,89.76884 L 285.81952,88.02489 L 285.81952,92.63545 L 285.81952,97.24602 L 287.9525,97.78136 L 290.08548,98.31671 L 290.08548,117.4373 L 290.08548,136.55789 L 287.9525,136.02255 L 285.81952,135.4872 L 285.81952,139.7292 L 285.81952,143.9712 L 293.71667,146.2123 C 301.81191,148.50962 317.04241,153.75823 324.63978,156.86876 C 326.98606,157.82938 329.1937,158.63628 329.54564,158.66187 L 330.18553,158.70839 L 330.18553,152.45288 z M 104.6605,148.05928 C 105.20919,147.87449 107.6088,145.14652 109.99296,141.99711 L 114.32781,136.27091 L 114.32781,127.1264 L 114.32781,117.9819 L 111.09625,115.84337 L 107.8647,113.70482 L 97.23188,117.42271 C 91.38382,119.46755 86.3111,121.14674 85.95915,121.15426 L 85.31926,121.16792 L 85.31926,114.48159 L 85.31926,107.79527 L 93.21129,105.0863 C 97.55191,103.59637 101.58324,102.38191 102.16981,102.3875 L 103.2363,102.39768 L 103.2363,104.19535 L 103.2363,105.99302 L 104.30279,105.59667 C 104.88936,105.37868 107.38495,104.68911 109.84855,104.0643 L 114.32781,102.92828 L 114.32781,100.19235 L 114.32781,97.45641 L 110.05963,94.71753 L 105.79145,91.97865 L 95.04158,95.69508 L 84.29169,99.41151 L 79.68632,105.94036 L 75.08095,112.46922 L 75.09213,120.01804 L 75.10331,127.56686 L 77.85504,129.35103 L 80.60675,131.1352 L 91.10902,127.43135 C 96.88527,125.39423 101.97691,123.7275 102.42379,123.7275 L 103.2363,123.7275 L 103.2363,132.15595 L 103.2363,140.5844 L 95.77087,143.14382 C 91.66488,144.5515 87.63354,145.98291 86.81235,146.32475 L 85.31926,146.94626 L 85.31926,143.50117 L 85.31926,140.05608 L 80.4134,142.0468 L 75.50754,144.03752 L 75.25004,147.43429 L 74.99254,150.83104 L 79.02106,153.30677 L 83.04959,155.7825 L 93.35624,152.08887 C 99.0249,150.05738 104.11182,148.24406 104.6605,148.05928 z M 158.05393,136.56541 L 159.54701,136.52539 L 159.54701,131.85416 L 159.54701,127.18293 L 156.98744,127.69484 L 154.42786,128.20676 L 154.42786,108.90328 L 154.42786,89.59979 L 156.01516,89.59979 C 156.88818,89.59979 159.38376,89.35563 161.56092,89.05723 L 165.51936,88.51466 L 165.51883,91.83011 L 165.5183,95.14554 L 169.7848,94.8499 L 174.05129,94.55426 L 174.05129,86.53128 L 174.05129,78.50829 L 173.23073,78.50829 C 167.25493,78.50829 135.36905,83.73761 126.05921,86.24447 L 122.85973,87.10599 L 122.85973,94.75183 L 122.85973,102.39768 L 123.76171,102.39768 C 124.2578,102.39768 126.36945,101.96817 128.45427,101.44321 L 132.24485,100.48872 L 132.24485,97.24794 L 132.24485,94.00716 L 136.55281,93.08326 C 138.92218,92.57512 141.2258,92.15937 141.67196,92.15937 L 142.48316,92.15937 L 142.48316,111.3562 L 142.48316,130.55304 L 140.35018,130.55304 L 138.2172,130.55304 L 138.2172,135.09221 L 138.2172,139.63138 L 147.38902,138.11841 C 152.43352,137.28627 157.23273,136.58742 158.05393,136.56541 z M 261.07693,134.02515 L 261.07693,129.81852 L 259.15725,129.54589 L 257.23757,129.27325 L 257.00772,110.20738 L 256.77788,91.1415 L 261.27369,91.74799 C 263.74638,92.08155 266.05744,92.52519 266.40939,92.73387 L 267.04928,93.11327 L 267.04928,96.36664 L 267.04928,99.62001 L 270.38747,100.15381 C 272.22347,100.4474 274.33512,100.92148 275.08002,101.20733 L 276.4344,101.72706 L 276.4344,93.62673 L 276.4344,85.52642 L 264.703,83.27764 C 251.76479,80.79753 234.58031,78.50829 228.90134,78.50829 L 225.24284,78.50829 L 225.24284,86.18702 L 225.24284,93.86576 L 227.58912,93.8774 C 228.87958,93.88381 230.79926,94.12056 231.85509,94.40351 L 233.77477,94.91796 L 233.77477,91.29405 L 233.77477,87.67014 L 236.97424,88.19898 C 238.73395,88.48984 241.22954,88.73204 242.51999,88.73721 L 244.86627,88.7466 L 244.86627,108.04027 L 244.86627,127.33394 L 242.3067,126.95827 L 239.74712,126.58261 L 239.74712,131.06601 L 239.74712,135.54941 L 244.65298,136.15053 C 247.3512,136.48114 251.28655,137.03951 253.3982,137.39135 C 255.50985,137.7432 258.10142,138.07623 259.15725,138.13142 L 261.07693,138.23177 L 261.07693,134.02515 z M 183.22311,134.26083 L 190.26195,133.7129 L 190.26195,129.14679 L 190.26195,124.58069 L 188.12897,124.58069 C 186.95583,124.58069 185.9963,124.4847 185.99668,124.36739 C 185.99706,124.25008 186.72574,122.23441 187.61597,119.88813 L 189.23456,115.62217 L 198.99058,115.38303 L 208.7466,115.14389 L 209.80344,118.67131 C 210.3847,120.61139 211.06594,122.73467 211.31731,123.38971 L 211.77433,124.58069 L 209.55006,124.58069 L 207.3258,124.58069 L 207.3258,129.27325 L 207.3258,133.96581 L 217.56411,133.96581 L 227.80242,133.96581 L 227.80242,129.7539 L 227.80242,125.542 L 225.08662,125.27464 L 222.37081,125.00729 L 214.20841,101.33501 L 206.04601,77.66274 L 199.54004,77.65892 L 193.03408,77.6551 L 184.60917,101.53606 L 176.18427,125.41703 L 173.83799,125.42545 L 171.49171,125.43388 L 171.49171,130.12644 L 171.49171,134.819 L 173.83799,134.81389 C 175.12844,134.81107 179.35175,134.5622 183.22311,134.26083 z M 195.33473,98.14825 C 197.06266,93.46477 198.68937,89.41989 198.94965,89.15961 L 199.42288,88.68639 L 202.52115,97.31236 C 204.2252,102.05665 205.61941,106.10154 205.61941,106.301 C 205.61941,106.50045 202.59848,106.66364 198.90622,106.66364 L 192.19304,106.66364 L 195.33473,98.14825 z M 0,187.33044 C 0,187.03965 2.916596,177.50522 6.481337,166.14282 C 10.04607,154.78042 14.019481,141.99896 15.311138,137.73957 L 17.659611,129.99523 L 10.164971,113.42358 L 2.670331,96.85193 L 4.534633,95.39304 C 13.727852,88.19898 47.700616,70.6315 65.48253,63.87659 L 69.96179,62.17503 L 69.96179,57.99733 L 69.96179,53.81965 L 62.70966,42.07377 L 55.457518,30.32788 L 55.457518,15.16394 L 55.457518,0 L 102.08854,0.220584 L 148.71956,0.441167 L 165.65139,26.75329 C 175.51008,42.07373 180.84884,50.45097 182.14633,53.37396 C 135.14263,55.05605 90.92601,71.25067 48.389202,90.07521 L 36.687281,95.89199 L 36.687281,131.11165 L 36.687281,166.3313 L 28.368654,171.17677 C 23.793408,173.84178 15.836449,178.55756 10.686527,181.65629 C 0.222137,187.95275 0,188.0707 0,187.33044 z M 401.85371,184.66648 C 399.2728,183.01274 391.11415,178.14679 383.72337,173.85326 L 370.28558,166.04683 L 370.28558,130.81559 L 370.28558,95.58435 L 359.32182,90.0904 C 320.95122,70.86286 276.79579,58.03947 236.75195,54.49427 L 225.17404,53.46925 C 230.29682,43.85819 236.61715,34.76671 242.50321,25.58582 L 258.94395,0.017617 L 305.65625,0.016094 L 352.36854,0.014571 L 352.36854,15.02506 L 352.36854,30.03555 L 345.1164,41.77244 L 337.86427,53.50934 L 337.86427,57.75524 L 337.86427,62.00115 L 346.60949,65.68218 C 364.79799,73.33806 395.15427,89.39958 402.50555,95.25679 L 404.78682,97.07443 L 397.25884,113.56689 L 389.73087,130.05934 L 396.22588,150.99611 C 399.79811,162.51133 403.83073,175.48429 405.18722,179.82491 L 407.65354,187.71694 L 407.09991,187.6951 C 406.7954,187.68309 404.43462,186.32021 401.85371,184.66648 z"
     id="path2451"
     sodipodi:nodetypes="cccccccccccccccccccccccccccccccccccccccccccccccccccccccccccccccccccccccccccccccccccccccccccccscccccccccccccccccccccccccccccccccccccccccccccccccccccccccccccccccccccccccccccccccccccccccccccccccccccccccccccccccccccccccccccccsccccccccscccccccccccccccccccccccccccccccccsccccsccccccccccccccccccccccsccccccccccccccccccccccccccccc" />
</svg>
